<svg width="200" height="70" viewBox="0 0 200 70" fill="none" xmlns="http://www.w3.org/2000/svg">
<mask id="mask0_209_2" style="mask-type:alpha" maskUnits="userSpaceOnUse" x="0" y="-24" width="200" height="94">
<rect width="200" height="93.88" rx="10" transform="matrix(1 0 0 -1 0 69.88)" fill="#24263A"/>
</mask>
<g mask="url(#mask0_209_2)">
<path d="M80.3557 55.1671C75.8408 60.5882 72.0784 65.2347 65.3061 64.4603V69.88H200V19.5424C199.498 19.0261 197.592 18.3033 193.98 19.5424C189.465 21.0912 179.683 35.8054 170.653 40.452C161.624 45.0986 151.841 34.2558 142.812 33.4814C133.782 32.707 130.019 47.4212 121.742 48.97C113.465 50.5189 107.445 45.874 99.1677 44.3251C90.8904 42.7762 84.8706 49.7461 80.3557 55.1671Z" fill="url(#paint0_linear_209_2)"/>
</g>
<path d="M77.551 58.3003C78.3006 59.1097 80.5493 59.9192 83.5475 56.6815C87.2953 52.6343 89.544 42.9212 98.5387 41.3024C107.533 39.6835 109.782 48.5872 121.025 51.0155C132.269 53.4438 136.017 51.0162 142.013 46.969C148.01 42.9219 154.756 27.5428 165.249 27.5428C175.743 27.5428 179.491 30.7805 186.987 38.8748C192.983 45.3502 197.48 46.969 198.98 46.969" stroke="#894BA9" stroke-width="0.5"/>
<defs>
<linearGradient id="paint0_linear_209_2" x1="173.663" y1="21.9559" x2="172.069" y2="72.2912" gradientUnits="userSpaceOnUse">
<stop stop-color="#7B4397"/>
<stop offset="1" stop-color="#7B4397" stop-opacity="0"/>
</linearGradient>
</defs>
</svg>
