<svg width="200" height="70" viewBox="0 0 200 70" fill="none" xmlns="http://www.w3.org/2000/svg">
<mask id="mask0_209_8" style="mask-type:alpha" maskUnits="userSpaceOnUse" x="0" y="-24" width="200" height="94">
<rect width="200" height="93.88" rx="10" transform="matrix(1 0 0 -1 0 69.88)" fill="#24263A"/>
</mask>
<g mask="url(#mask0_209_8)">
<path d="M80.3554 55.1672C75.8406 60.5882 72.0783 65.2348 65.3061 64.4604V69.88H199.997V19.5424C199.496 19.0262 197.589 18.3034 193.978 19.5424C189.463 21.0913 179.681 35.8055 170.651 40.4521C161.622 45.0987 151.84 34.2559 142.81 33.4815C133.78 32.707 130.018 47.4212 121.741 48.9701C113.464 50.519 107.444 45.874 99.167 44.3252C90.8899 42.7763 84.8702 49.7462 80.3554 55.1672Z" fill="url(#paint0_linear_209_8)"/>
<path d="M78.7827 58.7113C79.531 59.5085 81.7758 60.3057 84.769 57.1168C88.5104 53.1308 90.7552 43.5642 99.7346 41.9698C108.714 40.3753 110.959 49.1447 122.183 51.5363C133.407 53.928 137.149 51.537 143.135 47.5509C149.121 43.5649 155.856 28.4178 166.332 28.4178C176.808 28.4178 180.549 31.6066 188.032 39.5788C194.018 45.9565 198.508 47.5509 200.005 47.5509" stroke="#894BA9" stroke-width="0.5"/>
</g>
<defs>
<linearGradient id="paint0_linear_209_8" x1="173.661" y1="21.956" x2="172.067" y2="72.2912" gradientUnits="userSpaceOnUse">
<stop stop-color="#DB2379"/>
<stop offset="1" stop-color="#DB2379" stop-opacity="0"/>
</linearGradient>
</defs>
</svg>
