<svg width="200" height="65" viewBox="0 0 200 65" fill="none" xmlns="http://www.w3.org/2000/svg">
<mask id="mask0_209_15" style="mask-type:alpha" maskUnits="userSpaceOnUse" x="0" y="-29" width="200" height="94">
<rect width="200" height="93.88" rx="10" transform="matrix(1 0 0 -1 0 64.88)" fill="#24263A"/>
</mask>
<g mask="url(#mask0_209_15)">
<path d="M80.3557 50.1672C75.8408 55.5882 72.0784 60.2348 65.3061 59.4604V64.88H200V14.5424C199.498 14.0262 197.592 13.3034 193.98 14.5424C189.465 16.0913 179.683 30.8055 170.653 35.4521C161.624 40.0987 151.841 29.2559 142.812 28.4815C133.782 27.707 130.019 42.4212 121.742 43.9701C113.465 45.519 107.445 40.874 99.1677 39.3252C90.8904 37.7763 84.8706 44.7462 80.3557 50.1672Z" fill="url(#paint0_linear_209_15)"/>
<path d="M78.7736 53.7104C79.5219 54.5076 81.7668 55.3048 84.76 52.1159C88.5015 48.1299 90.7464 38.5633 99.726 36.9689C108.706 35.3744 110.951 44.1438 122.175 46.5354C133.399 48.9271 137.141 46.5361 143.127 42.55C149.114 38.564 155.848 23.4169 166.325 23.4169C176.801 23.4169 180.542 26.6057 188.025 34.5779C194.012 40.9556 198.502 42.55 199.998 42.55" stroke="#894BA9" stroke-width="0.5"/>
</g>
<defs>
<linearGradient id="paint0_linear_209_15" x1="173.663" y1="16.956" x2="172.069" y2="67.2912" gradientUnits="userSpaceOnUse">
<stop stop-color="#DC2430"/>
<stop offset="1" stop-color="#DC2430" stop-opacity="0"/>
</linearGradient>
</defs>
</svg>
