<svg width="200" height="66" viewBox="0 0 200 66" fill="none" xmlns="http://www.w3.org/2000/svg">
<mask id="mask0_209_28" style="mask-type:alpha" maskUnits="userSpaceOnUse" x="0" y="-29" width="200" height="95">
<rect width="200" height="93.8775" rx="10" transform="matrix(1 0 0 -1 0 65.2245)" fill="#24263A"/>
</mask>
<g mask="url(#mask0_209_28)">
<path d="M80.3557 50.5121C75.8409 55.933 72.0785 60.5795 65.3062 59.8051V65.2246H200V14.8883C199.498 14.372 197.592 13.6493 193.98 14.8883C189.465 16.4371 179.683 31.151 170.653 35.7974C161.624 40.4439 151.841 29.6014 142.812 28.827C133.782 28.0526 130.019 42.7664 121.742 44.3152C113.465 45.864 107.445 41.2192 99.1677 39.6704C90.8905 38.1216 84.8706 45.0913 80.3557 50.5121Z" fill="url(#paint0_linear_209_28)"/>
</g>
<path d="M77.551 53.6451C78.3006 54.4545 80.5493 55.2639 83.5475 52.0263C87.2953 47.9793 89.544 38.2664 98.5387 36.6476C107.533 35.0288 109.782 43.9322 121.025 46.3604C132.269 48.7887 136.017 46.3611 142.013 42.3141C148.01 38.2671 154.756 22.8884 165.249 22.8884C175.743 22.8884 179.491 26.126 186.987 34.22C192.983 40.6953 197.48 42.3141 198.98 42.3141" stroke="#894BA9" stroke-width="0.5"/>
<defs>
<linearGradient id="paint0_linear_209_28" x1="173.663" y1="17.3018" x2="172.069" y2="67.6357" gradientUnits="userSpaceOnUse">
<stop stop-color="#5E78D2"/>
<stop offset="1" stop-color="#5E78D2" stop-opacity="0"/>
</linearGradient>
</defs>
</svg>
