<svg width="200" height="59" viewBox="0 0 200 59" fill="none" xmlns="http://www.w3.org/2000/svg">
<mask id="mask0_209_21" style="mask-type:alpha" maskUnits="userSpaceOnUse" x="0" y="-35" width="200" height="94">
<rect width="200" height="93.884" rx="10" transform="matrix(1 0 0 -1 0 58.884)" fill="#24263A"/>
</mask>
<g mask="url(#mask0_209_21)">
<path d="M80.3557 44.1706C75.8408 49.5918 72.0784 54.2386 65.3061 53.4642V58.884H200V8.5443C199.498 8.02799 197.592 7.30516 193.98 8.5443C189.465 10.0932 179.683 24.8081 170.653 29.4549C161.624 34.1016 151.841 23.2584 142.812 22.4839C133.782 21.7095 130.019 36.4243 121.742 37.9732C113.465 39.5221 107.445 34.877 99.1677 33.3281C90.8904 31.7791 84.8706 38.7493 80.3557 44.1706Z" fill="url(#paint0_linear_209_21)"/>
<path d="M78.7737 47.7139C79.522 48.5112 81.7668 49.3084 84.76 46.1194C88.5015 42.1332 90.7464 32.5662 99.726 30.9717C108.706 29.3772 110.951 38.1469 122.175 40.5387C133.4 42.9304 137.141 40.5393 143.127 36.5531C149.114 32.5669 155.848 17.4191 166.325 17.4191C176.801 17.4191 180.542 20.6081 188.025 28.5806C194.012 34.9586 198.502 36.5531 199.998 36.5531" stroke="#894BA9" stroke-width="0.5"/>
</g>
<defs>
<linearGradient id="paint0_linear_209_21" x1="173.663" y1="10.958" x2="172.069" y2="61.2954" gradientUnits="userSpaceOnUse">
<stop stop-color="#327D35"/>
<stop offset="1" stop-color="#327D35" stop-opacity="0"/>
</linearGradient>
</defs>
</svg>
